<svg width="49" height="48" viewBox="0 0 49 48" fill="none" xmlns="http://www.w3.org/2000/svg">
<rect x="1" y="0.5" width="47" height="47" rx="23.5" stroke="#584D62"/>
<path d="M29.1335 27.05C29.1335 27.8967 28.9268 28.63 28.5135 29.25C28.1068 29.87 27.5368 30.35 26.8035 30.69C26.0702 31.03 25.2202 31.2 24.2535 31.2C22.8402 31.2 21.7468 30.91 20.9735 30.33C20.2068 29.75 19.8235 29.0333 19.8235 28.18C19.8235 27.6933 19.9502 27.3 20.2035 27C20.4568 26.6933 20.7635 26.54 21.1235 26.54C21.4302 26.54 21.6935 26.66 21.9135 26.9C22.1335 27.1333 22.2435 27.4367 22.2435 27.81V29.04C22.2435 29.6267 22.4202 30.1133 22.7735 30.5C23.1268 30.88 23.6368 31.07 24.3035 31.07C24.9902 31.07 25.5368 30.7967 25.9435 30.25C26.3502 29.7033 26.5535 28.7967 26.5535 27.53C26.5535 26.2367 26.3035 25.27 25.8035 24.63C25.3035 23.99 24.6535 23.67 23.8535 23.67H23.2735C23.1802 23.67 23.1335 23.6367 23.1335 23.57C23.1335 23.5367 23.1802 23.4733 23.2735 23.38L27.1835 19.17H21.4535C21.2335 19.17 21.0902 19.2833 21.0235 19.51L20.5935 21.01C20.5802 21.07 20.5468 21.1 20.4935 21.1C20.4335 21.1 20.4102 21.06 20.4235 20.98L20.8735 17.31C20.9002 17.1033 20.9902 17 21.1435 17H29.3135C29.4068 17 29.4535 17.04 29.4535 17.12C29.4535 17.18 29.4102 17.2567 29.3235 17.35L23.4235 23.45H23.9135C25.5135 23.45 26.7835 23.74 27.7235 24.32C28.6635 24.9 29.1335 25.81 29.1335 27.05Z" fill="#24053E"/>
</svg>
