<svg width="49" height="48" viewBox="0 0 49 48" fill="none" xmlns="http://www.w3.org/2000/svg">
<rect x="1" y="0.5" width="47" height="47" rx="23.5" stroke="#584D62"/>
<path d="M19.5134 29.92C19.5134 28.9733 19.9167 28.28 20.7234 27.84L22.6234 26.61C23.8234 25.8167 24.7167 24.9333 25.3034 23.96C25.8967 22.98 26.1934 21.8267 26.1934 20.5C26.1934 19.2133 25.9934 18.3 25.5934 17.76C25.2 17.2133 24.74 16.94 24.2134 16.94C23.58 16.94 23.1 17.13 22.7734 17.51C22.4534 17.8833 22.2934 18.3967 22.2934 19.05V20.35C22.2934 20.8167 22.1667 21.1833 21.9134 21.45C21.6667 21.71 21.3667 21.84 21.0134 21.84C20.6267 21.84 20.3234 21.73 20.1034 21.51C19.8834 21.2833 19.7734 20.9633 19.7734 20.55C19.7734 19.9167 19.96 19.3133 20.3334 18.74C20.7134 18.1667 21.2734 17.7 22.0134 17.34C22.7534 16.98 23.67 16.8 24.7634 16.8C26.1367 16.8 27.1967 17.1333 27.9434 17.8C28.6967 18.4667 29.0734 19.3167 29.0734 20.35C29.0734 21.05 28.9 21.71 28.5534 22.33C28.2134 22.95 27.6634 23.5733 26.9034 24.2C26.1434 24.8267 25.1367 25.5067 23.8834 26.24L21.5034 27.54C21.8767 27.4467 22.29 27.4 22.7434 27.4C23.2834 27.4 23.8367 27.5033 24.4034 27.71C24.97 27.91 25.5267 28.11 26.0734 28.31C26.62 28.51 27.13 28.61 27.6034 28.61C28.11 28.61 28.5 28.5033 28.7734 28.29C29.0534 28.07 29.28 27.69 29.4534 27.15C29.4667 27.09 29.49 27.0667 29.5234 27.08C29.55 27.0867 29.5634 27.1133 29.5634 27.16C29.45 28.1933 29.26 29.0033 28.9934 29.59C28.7267 30.17 28.39 30.58 27.9834 30.82C27.5767 31.0533 27.1134 31.17 26.5934 31.17C26.14 31.17 25.74 31.09 25.3934 30.93C25.0467 30.77 24.7134 30.4867 24.3934 30.08C24.08 29.6733 23.74 29.1033 23.3734 28.37C23.1334 28.0567 22.94 27.84 22.7934 27.72C22.6534 27.6 22.5267 27.54 22.4134 27.54C22.24 27.54 22.1034 27.64 22.0034 27.84C21.9034 28.04 21.8434 28.4133 21.8234 28.96C21.7767 29.8333 21.63 30.4167 21.3834 30.71C21.1367 31.0033 20.8234 31.15 20.4434 31.15C20.1567 31.15 19.93 31.0367 19.7634 30.81C19.5967 30.5833 19.5134 30.2867 19.5134 29.92Z" fill="#24053E"/>
</svg>
