<svg width="49" height="48" viewBox="0 0 49 48" fill="none" xmlns="http://www.w3.org/2000/svg">
<rect x="1" y="0.5" width="47" height="47" rx="23.5" stroke="#584D62"/>
<path d="M21.4793 17.7C21.3993 17.7 21.3593 17.6667 21.3593 17.6C21.3593 17.5467 21.3993 17.52 21.4793 17.52L22.8693 17.49C23.6626 17.49 24.2726 17.4333 24.6993 17.32C25.1326 17.2067 25.4726 16.9733 25.7193 16.62C25.7726 16.5267 25.8226 16.48 25.8693 16.48C25.9426 16.48 25.9793 16.53 25.9793 16.63V30C25.9793 30.36 26.146 30.5733 26.4793 30.64L27.7293 30.84C27.8093 30.86 27.8493 30.8867 27.8493 30.92C27.8493 30.9733 27.8093 31 27.7293 31H21.3793C21.2926 31 21.2493 30.97 21.2493 30.91C21.2493 30.8767 21.296 30.85 21.3893 30.83L22.6093 30.64C22.776 30.6 22.9126 30.5333 23.0193 30.44C23.126 30.3467 23.1793 30.2033 23.1793 30.01V18.09C23.1793 17.8433 23.0793 17.72 22.8793 17.72L21.4793 17.7Z" fill="#24053E"/>
</svg>
